<?xml version="1.0" encoding="UTF-8"?><svg id="Warstwa_1" xmlns="http://www.w3.org/2000/svg" viewBox="0 0 291.06 384.01"><polygon points="180.9 0 288.15 112.51 180.15 112.51 180.15 0 180.9 0" style="fill:#4e91de;"/><path d="M180.15,0c.8.35,1.32,1.76,1.5,2.72v107.76c34.25.63,68.7.8,103.36.51l3.14,1.5c1.21-1.88,2.5-.46,2.62,1.47l.28,222.87c-1.31,23.21-20.08,46.13-44.15,47.16H44.4c-15.34-.3-29.39-11.01-37.02-23.87-2.04-3.43-5.95-11.4-6.02-15.15-1.98-101.97-1.66-203.96.04-306,.07-4.34,4.38-12.62,6.82-16.38C16.1,10.46,29.39-.3,44.4,0h135.75Z" style="fill:#0263d0;"/><path d="M92.95,183.18l104.1-.19c8.55,1.02,10.37,11.67,3.16,15.95-35.41,1.33-71.16.18-106.7.59-8.97-1.64-9.44-13.83-.56-16.35Z" style="fill:#fefefe;"/><path d="M92.95,216.93l104.1-.19c8.55,1.02,10.37,11.67,3.16,15.95-35.41,1.33-71.16.18-106.7.59-8.97-1.64-9.44-13.83-.56-16.35Z" style="fill:#fefefe;"/><path d="M92.95,250.68l104.1-.19c8.55,1.02,10.37,11.67,3.16,15.95-35.41,1.33-71.16.18-106.7.59-8.97-1.64-9.44-13.83-.56-16.35Z" style="fill:#fefefe;"/><path d="M92.95,284.43l71.03-.12c8.81,1.94,9.49,13.73.76,16.41h-71.91c-8.48-2.55-8.35-13.86.13-16.29Z" style="fill:#fefefe;"/></svg>