<?xml version="1.0" encoding="UTF-8"?><svg id="Warstwa_1" xmlns="http://www.w3.org/2000/svg" viewBox="0 0 384 303.58"><path d="M149.25,20.05l3.16,1.46,17.94,23.35c4.82,8,11.03,13.17,18.63,15.51l194.09.18.93,1.5v216c-.74,14.14-14.41,25.07-28.06,25.53l-330.19-.05c-12.77-1.83-25.12-12.06-25.75-25.48V26.05C.68,12.36,13.47,1.89,26.57.53c28.54.07,57.09-.11,85.65-.53,9.87.42,17.6,1.47,25.74,7.01,4.1,2.79,10.82,8.3,11.29,13.05Z" style="fill:#fbd254;"/><path d="M384,44.05v18l-195.18-.2c-4.92-.82-8.14-3.06-11.46-6.54-9.7-10.19-18.79-24.23-28.12-35.26h208.87c12.86,1.76,22.51,11.77,25.88,24Z" style="fill:#feb025;"/></svg>