<?xml version="1.0" encoding="UTF-8"?><svg id="Warstwa_1" xmlns="http://www.w3.org/2000/svg" viewBox="0 0 337.29 384"><path d="M202.18,0c.63.18,1.36,1.35,1.52,2.02l1.01,106.26c42.14.89,84.5,1.29,127.08,1.21l3.13,1.52c1.82-.56,2.34.37,2.37,2.13l-.14,249.61c-1.57,10.66-9.77,20.68-20.98,21.25H53.68c-17.39-.99-22.49-19.49-22.12-34.21.43-9.85.6-19.69.49-29.51l1.38-1.53c8.47-.67,16.96-1.34,25.46-1.37l204.16-.21c8.59-.9,9.12-8.2,9.26-16.25.05-36.18-.23-72.1-.84-107.78-.97-2.38-2.49-4.35-4.55-5.93-78-.23-155.75-.55-233.27-.95l-.21-1.77-1.5-.53.11-159.9C33.29,11.59,41.37.48,54.43,0h147.75Z" style="fill:#4eb2f1;"/><path d="M334.93,111l-131.7-.68-1.05-110.32h.75l130.55,109.11c.59.54,1.1,1.17,1.45,1.89Z" style="fill:#0077cb;"/><path d="M33.43,184.5c.13,0,1.17.79,2.54.8,77.05.86,154.33-1.23,231.27.51,3.39,2.26,5.86,5.36,6.19,9.56-1.99,36.18,2.64,75.18.03,111.03-.53,7.33-3.21,11.55-10.92,12.33-76.36-.4-152.76.57-229.11.01-7.04-.05-20.13,1.1-26.3-.32-3.35-.77-5.68-3.45-7.11-6.39l-.02-120.08c.47-1.95,2.52-4.51,4.21-5.54,5.06-3.11,22.48-1.99,29.22-1.9Z" style="fill:#0077cb;"/><path d="M126.8,224.25c2.09,1.72,8.8,16.5,9.76,16.51,1.34.02,1.44-.86,2.01-1.74,2.97-4.51,4.99-10.44,8.48-14.77h18.38l-17.12,27.25,18.62,29h-19.12l-11.62-18-10.88,18h-19.12l18.76-28.92c.38-3.9-15.27-21.77-16.51-27.33h18.38Z" style="fill:#fefefe;"/><polygon points="103.93 224.25 103.93 238.5 85.93 238.5 85.93 280.5 68.68 280.5 68.68 238.5 51.43 238.5 51.43 224.25 103.93 224.25" style="fill:#fefefe;"/><polygon points="221.68 224.25 221.68 238.5 203.68 238.5 203.68 280.5 186.43 280.5 186.43 238.5 169.18 238.5 169.18 224.25 221.68 224.25" style="fill:#fefefe;"/></svg>